<svg xmlns="http://www.w3.org/2000/svg" width="352" height="350" style=""><rect id="backgroundrect" width="100%" height="100%" x="0" y="0" fill="none" stroke="none" class="" style=""/>
    
<g class="currentLayer" style=""><title>Layer 1</title><g fill="none" fill-rule="evenodd" id="svg_1" class="" transform="">
        <path fill="#FFF" d="M0,0 H352 V350 H0 z" id="svg_2" transform=""/>
        <path fill="#203AA9" fill-rule="nonzero" d="M114.01499938964844,244.56253051757812 c6.746781349182129,0 13.383218765258789,-0.8749999403953552 19.90999984741211,-2.624999761581421 c6.526780605316162,-1.75 12.393218994140625,-4.775927543640137 17.600000381469727,-9.078125 c5.206781387329102,-4.302197456359863 9.386780738830566,-10.317821502685547 12.539999961853027,-18.046875 c3.1532187461853027,-7.729053020477295 4.729999542236328,-17.572803497314453 4.729999542236328,-29.531248092651367 c0,-17.791553497314453 -4.179999828338623,-31.609376907348633 -12.539999961853027,-41.453125 c-8.359999656677246,-9.84375 -20.899999618530273,-14.765624046325684 -37.62000274658203,-14.765624046325684 c-3.0799999237060547,0 -6.7832183837890625,0.4375 -11.109999656677246,1.3125 c-4.326781272888184,0.8749999403953552 -8.579999923706055,2.0415525436401367 -12.75999927520752,3.499999761581421 c-0.8359999656677246,0.29155275225639343 -1.6441562175750732,0.5981447696685791 -2.424468755722046,0.918749988079071 l-2.093437671661377,0.9406251311302185 l0.007906251586973667,-48.234375 H67.375 v132.125 c0,5.104053497314453 1.2832187414169312,9.260303497314453 3.8500001430511475,12.46875 c2.5667812824249268,3.208447217941284 6.050000190734863,5.724071979522705 10.449999809265137,7.546875 c4.400000095367432,1.8228027820587158 9.386780738830566,3.099072217941284 14.960000038146973,3.828125238418579 c5.57321834564209,0.7290527820587158 11.366781234741211,1.09375 17.380001068115234,1.09375 zm-1.100000023841858,-19.90625 c-3.5199997425079346,0 -7.003218173980713,-0.25532224774360657 -10.449999809265137,-0.7656251192092896 c-3.4467813968658447,-0.5103026032447815 -6.3432183265686035,-1.5678224563598633 -8.690000534057617,-3.171874761581421 c-2.3467812538146973,-1.6040527820587158 -3.5199997425079346,-3.8646974563598633 -3.5199997425079346,-6.781249523162842 v-59.062496185302734 c3.813218593597412,-2.1875 7.956781387329102,-3.7915525436401367 12.430000305175781,-4.8125 c4.47321891784668,-1.0209472179412842 8.616781234741211,-1.5312501192092896 12.430000305175781,-1.5312501192092896 c6.893218517303467,0 12.539999961853027,1.4584474563598633 16.939998626708984,4.375 c4.400000095367432,2.916552782058716 7.700000286102295,7.145947456359863 9.899999618530273,12.687499046325684 c2.200000047683716,5.541552543640137 3.3000001907348633,12.395946502685547 3.3000001907348633,20.5625 c0,7.145947456359863 -0.8799999356269836,13.599071502685547 -2.6399998664855957,19.359375 c-1.7599999904632568,5.760303020477295 -4.986781120300293,10.390625 -9.680000305175781,13.890624046325684 c-4.69321870803833,3.499999761581421 -11.366781234741211,5.25 -20.020000457763672,5.25 z" id="svg_3" transform=""/>
        <path fill="#F84040" fill-rule="nonzero" d="M238.40679931640625,244.56253051757812 c8.066436767578125,0 15.326436996459961,-0.6928223967552185 21.779998779296875,-2.078125 c6.453218936920166,-1.3853027820587158 12.246437072753906,-3.171874761581421 17.380001068115234,-5.359375476837158 v-21.21875 c-2.6399998664855957,1.3125 -5.793562412261963,2.6615724563598633 -9.460000038146973,4.046874523162842 c-3.666781187057495,1.3853027820587158 -7.663562774658203,2.515625238418579 -11.99000072479248,3.390625 c-4.326781272888184,0.8749999403953552 -8.983562469482422,1.3125 -13.969999313354492,1.3125 c-11.146780967712402,0 -19.579999923706055,-3.171874761581421 -25.299999237060547,-9.515625 c-4.90290641784668,-5.437646865844727 -7.704468727111816,-13.044677734375 -8.404687881469727,-22.821435928344727 l-0.04124999791383743,-0.6941895484924316 h77.52593994140625 c0.13199996948242188,-11.28749942779541 -1.1319687366485596,-21.30522346496582 -3.791562557220459,-30.052833557128906 l-0.9384375214576721,-2.8690428733825684 c-3.3000001907348633,-9.40625 -8.616781234741211,-16.734375 -15.950000762939453,-21.984375 c-7.33356237411499,-5.25 -16.939998626708984,-7.875000476837158 -28.819997787475586,-7.875000476837158 c-16.133562088012695,0 -28.709997177124023,4.921875 -37.72999954223633,14.765624046325684 c-9.020000457763672,9.84375 -13.530000686645508,24.31782341003418 -13.530000686645508,43.421875 c0,12.395946502685547 2.1632187366485596,22.895946502685547 6.489999294281006,31.500001907348633 c4.326437473297119,8.604053497314453 10.486437797546387,15.09375 18.479999542236328,19.46875 c7.993218898773193,4.375 17.41643714904785,6.5625 28.26999855041504,6.5625 zm24.022281646728516,-70 H208.9690399169922 l0.09521878510713577,-0.7929686903953552 c0.42521873116493225,-3.1646971702575684 1.020937442779541,-5.98486328125 1.7861250638961792,-8.461181640625 l0.6063750386238098,-1.792724609375 c2.1264374256134033,-5.760303020477295 5.243218898773193,-9.84375 9.350000381469727,-12.25 c4.1064372062683105,-2.40625 9.093218803405762,-3.609375238418579 14.960000038146973,-3.609375238418579 c9.093218803405762,0 15.766437530517578,2.588427782058716 20.020000457763672,7.765624523162842 c3.2718124389648438,3.9822752475738525 5.4154372215271,9.755224227905273 6.4305315017700195,17.31884765625 l0.21175003051757812,1.821777105331421 z" id="svg_4" transform=""/>
    </g></g></svg>